<svg xmlns="http://www.w3.org/2000/svg" width="32" height="32" viewBox="0 0 32 32">
    <rect width="32" height="32" rx="8"/>
    <path data-name="" d="M26.468 19.388a2.769 2.769 0 0 0 1.932-1.045 3.4 3.4 0 0 0 .752-2.053 1.425 1.425 0 0 0-.031-.29 3.137 3.137 0 0 0-2.092 1.12 3.219 3.219 0 0 0-.779 1.988 1.319 1.319 0 0 0 .027.261 1.011 1.011 0 0 0 .191.019zM24.2 30.682c.878 0 1.268-.607 2.363-.607 1.114 0 1.358.588 2.336.588.96 0 1.6-.915 2.21-1.811a8.348 8.348 0 0 0 .978-2.081 3.214 3.214 0 0 1-1.9-2.968A3.341 3.341 0 0 1 31.72 21a3.311 3.311 0 0 0-2.82-1.453c-1.078 0-1.956.672-2.508.672-.6 0-1.385-.635-2.318-.635-1.775 0-3.577 1.512-3.577 4.368a9.222 9.222 0 0 0 1.494 4.863c.709 1.027 1.325 1.867 2.209 1.867z" transform="translate(-10.295 -9.073)" style="fill:#fff"/>
</svg>
