<svg id="icon_line" xmlns="http://www.w3.org/2000/svg" width="24" height="24" viewBox="0 0 24 24">
    <defs>
        <clipPath id="clip-path">
            <path id="矩形_821" data-name="矩形 821" style="fill:none" d="M0 0h24v24H0z"/>
        </clipPath>
        <style>
            .cls-3{fill:#06c755}
        </style>
    </defs>
    <g id="组_1616" data-name="组 1616" style="clip-path:url(#clip-path)">
        <path id="路径_1676" data-name="路径 1676" class="cls-3" d="M18.59 24H5.411A5.411 5.411 0 0 1 0 18.59V5.411A5.411 5.411 0 0 1 5.411 0H18.59A5.411 5.411 0 0 1 24 5.411V18.59A5.41 5.41 0 0 1 18.59 24"/>
        <path id="路径_1677" data-name="路径 1677" d="M69.282 64.839c0-3.58-3.589-6.493-8-6.493s-8 2.913-8 6.493c0 3.21 2.847 5.9 6.692 6.406.26.056.615.172.7.395a1.643 1.643 0 0 1 .026.723l-.114.685c-.035.2-.161.791.693.431a25.836 25.836 0 0 0 6.287-4.646 5.778 5.778 0 0 0 1.715-4" transform="translate(-49.283 -53.97)" style="fill:#fff"/>
        <path id="路径_1678" data-name="路径 1678" class="cls-3" d="M201.553 125.654H199.3a.153.153 0 0 1-.153-.153v-3.486a.153.153 0 0 1 .153-.153h2.248a.153.153 0 0 1 .153.153v.567a.153.153 0 0 1-.153.153h-1.528v.589h1.528a.153.153 0 0 1 .153.153v.567a.153.153 0 0 1-.153.153h-1.528v.589h1.528a.153.153 0 0 1 .153.153v.567a.153.153 0 0 1-.153.153" transform="translate(-184.216 -112.717)"/>
        <path id="路径_1679" data-name="路径 1679" class="cls-3" d="M90.679 125.654a.153.153 0 0 0 .153-.153v-.567a.153.153 0 0 0-.153-.153h-1.528v-2.772a.153.153 0 0 0-.153-.153h-.567a.153.153 0 0 0-.153.153v3.491a.153.153 0 0 0 .153.153h2.248z" transform="translate(-81.657 -112.717)"/>
        <path id="路径_1680" data-name="路径 1680" class="cls-3" d="M129.45 121.855h-.567a.153.153 0 0 0-.153.153v3.492a.153.153 0 0 0 .153.153h.567a.153.153 0 0 0 .153-.153v-3.492a.153.153 0 0 0-.153-.153" transform="translate(-119.075 -112.716)"/>
        <path id="路径_1681" data-name="路径 1681" class="cls-3" d="M150.811 121.855h-.567a.153.153 0 0 0-.153.153v2.074l-1.6-2.158-.012-.016-.009-.01-.008-.007-.008-.006H147.8a.153.153 0 0 0-.153.153v3.462a.153.153 0 0 0 .153.153h.567a.153.153 0 0 0 .153-.153v-2.074l1.6 2.16a.155.155 0 0 0 .039.038l.01.006h.026a.156.156 0 0 0 .04.005h.564a.153.153 0 0 0 .153-.153v-3.492a.153.153 0 0 0-.153-.153" transform="translate(-136.573 -112.716)"/>
    </g>
</svg>
